<?xml version="1.0" encoding="UTF-8" standalone="no"?>
<!DOCTYPE svg PUBLIC "-//W3C//DTD SVG 1.1//EN"
 "http://www.w3.org/Graphics/SVG/1.1/DTD/svg11.dtd">
<!-- Generated by graphviz version 2.43.0 (0)
 -->
<!-- Title: monte Pages: 1 -->
<svg width="851pt" height="218pt"
 viewBox="0.00 0.00 851.09 218.00" xmlns="http://www.w3.org/2000/svg" xmlns:xlink="http://www.w3.org/1999/xlink">
<g id="graph0" class="graph" transform="scale(1 1) rotate(0) translate(4 214)">
<title>monte</title>
<polygon fill="white" stroke="transparent" points="-4,4 -4,-214 847.09,-214 847.09,4 -4,4"/>
<!-- mc -->
<g id="node1" class="node">
<title>mc</title>
<ellipse fill="none" stroke="black" cx="382" cy="-192" rx="57.69" ry="18"/>
<text text-anchor="middle" x="382" y="-188.3" font-family="Times,serif" font-size="14.00">MC object</text>
</g>
<!-- mc&#45;&gt;mc -->
<g id="edge1" class="edge">
<title>mc&#45;&gt;mc</title>
<path fill="none" stroke="black" d="M434.46,-199.78C447.82,-199.27 457.84,-196.68 457.84,-192 457.84,-188.6 452.55,-186.3 444.53,-185.11"/>
<polygon fill="black" stroke="black" points="444.73,-181.61 434.46,-184.22 444.12,-188.58 444.73,-181.61"/>
<text text-anchor="middle" x="494.34" y="-188.3" font-family="Times,serif" font-size="14.00">reproduce</text>
</g>
<!-- mc_extended_nsims -->
<g id="node2" class="node">
<title>mc_extended_nsims</title>
<ellipse fill="none" stroke="black" cx="99" cy="-105" rx="87.18" ry="18"/>
<text text-anchor="middle" x="99" y="-101.3" font-family="Times,serif" font-size="14.00">(new) MC object</text>
</g>
<!-- mc&#45;&gt;mc_extended_nsims -->
<g id="edge2" class="edge">
<title>mc&#45;&gt;mc_extended_nsims</title>
<path fill="none" stroke="black" d="M341.75,-178.91C293.1,-164.3 210.89,-139.61 155.8,-123.06"/>
<polygon fill="black" stroke="black" points="156.77,-119.7 146.18,-120.17 154.75,-126.4 156.77,-119.7"/>
<text text-anchor="middle" x="306" y="-144.8" font-family="Times,serif" font-size="14.00">extend nsims</text>
</g>
<!-- mc_extended_dgpp -->
<g id="node3" class="node">
<title>mc_extended_dgpp</title>
<ellipse fill="none" stroke="black" cx="382" cy="-105" rx="87.18" ry="18"/>
<text text-anchor="middle" x="382" y="-101.3" font-family="Times,serif" font-size="14.00">(new) MC object</text>
</g>
<!-- mc&#45;&gt;mc_extended_dgpp -->
<g id="edge3" class="edge">
<title>mc&#45;&gt;mc_extended_dgpp</title>
<path fill="none" stroke="black" d="M382,-173.8C382,-162.16 382,-146.55 382,-133.24"/>
<polygon fill="black" stroke="black" points="385.5,-133.18 382,-123.18 378.5,-133.18 385.5,-133.18"/>
<text text-anchor="middle" x="453.5" y="-144.8" font-family="Times,serif" font-size="14.00">add DGP parameter</text>
</g>
<!-- mc_extended_ss -->
<g id="node4" class="node">
<title>mc_extended_ss</title>
<ellipse fill="none" stroke="black" cx="665" cy="-105" rx="87.18" ry="18"/>
<text text-anchor="middle" x="665" y="-101.3" font-family="Times,serif" font-size="14.00">(new) MC object</text>
</g>
<!-- mc&#45;&gt;mc_extended_ss -->
<g id="edge4" class="edge">
<title>mc&#45;&gt;mc_extended_ss</title>
<path fill="none" stroke="black" d="M428.72,-181.36C457.8,-175 495.85,-166 529,-156 558.9,-146.98 591.78,-134.95 617.72,-124.95"/>
<polygon fill="black" stroke="black" points="619.25,-128.11 627.3,-121.23 616.71,-121.59 619.25,-128.11"/>
<text text-anchor="middle" x="648" y="-144.8" font-family="Times,serif" font-size="14.00">add new sample size</text>
</g>
<!-- mc_extended_nsims&#45;&gt;mc_extended_nsims -->
<g id="edge5" class="edge">
<title>mc_extended_nsims&#45;&gt;mc_extended_nsims</title>
<path fill="none" stroke="black" d="M178.28,-112.5C193.4,-111.6 204.09,-109.1 204.09,-105 204.09,-101.89 197.95,-99.7 188.4,-98.44"/>
<polygon fill="black" stroke="black" points="188.56,-94.94 178.28,-97.5 187.92,-101.91 188.56,-94.94"/>
<text text-anchor="middle" x="240.59" y="-101.3" font-family="Times,serif" font-size="14.00">reproduce</text>
</g>
<!-- mc_extended_nsims_invis1 -->
<g id="node5" class="node">
<title>mc_extended_nsims_invis1</title>
<text text-anchor="middle" x="27" y="-14.3" font-family="Times,serif" font-size="14.00">...</text>
</g>
<!-- mc_extended_nsims&#45;&gt;mc_extended_nsims_invis1 -->
<g id="edge6" class="edge">
<title>mc_extended_nsims&#45;&gt;mc_extended_nsims_invis1</title>
<path fill="none" stroke="black" d="M84.78,-87.21C74.29,-74.83 59.86,-57.8 48.05,-43.85"/>
<polygon fill="black" stroke="black" points="50.58,-41.42 41.44,-36.05 45.23,-45.94 50.58,-41.42"/>
<text text-anchor="middle" x="75" y="-57.8" font-family="Times,serif" font-size="14.00">...</text>
</g>
<!-- mc_extended_nsims_invis2 -->
<g id="node6" class="node">
<title>mc_extended_nsims_invis2</title>
<text text-anchor="middle" x="99" y="-14.3" font-family="Times,serif" font-size="14.00">...</text>
</g>
<!-- mc_extended_nsims&#45;&gt;mc_extended_nsims_invis2 -->
<g id="edge7" class="edge">
<title>mc_extended_nsims&#45;&gt;mc_extended_nsims_invis2</title>
<path fill="none" stroke="black" d="M99,-86.8C99,-75.16 99,-59.55 99,-46.24"/>
<polygon fill="black" stroke="black" points="102.5,-46.18 99,-36.18 95.5,-46.18 102.5,-46.18"/>
<text text-anchor="middle" x="106" y="-57.8" font-family="Times,serif" font-size="14.00">...</text>
</g>
<!-- mc_extended_nsims_invis3 -->
<g id="node7" class="node">
<title>mc_extended_nsims_invis3</title>
<text text-anchor="middle" x="171" y="-14.3" font-family="Times,serif" font-size="14.00">...</text>
</g>
<!-- mc_extended_nsims&#45;&gt;mc_extended_nsims_invis3 -->
<g id="edge8" class="edge">
<title>mc_extended_nsims&#45;&gt;mc_extended_nsims_invis3</title>
<path fill="none" stroke="black" d="M113.22,-87.21C123.71,-74.83 138.14,-57.8 149.95,-43.85"/>
<polygon fill="black" stroke="black" points="152.77,-45.94 156.56,-36.05 147.42,-41.42 152.77,-45.94"/>
<text text-anchor="middle" x="147" y="-57.8" font-family="Times,serif" font-size="14.00">...</text>
</g>
<!-- mc_extended_dgpp&#45;&gt;mc_extended_dgpp -->
<g id="edge9" class="edge">
<title>mc_extended_dgpp&#45;&gt;mc_extended_dgpp</title>
<path fill="none" stroke="black" d="M461.28,-112.5C476.4,-111.6 487.09,-109.1 487.09,-105 487.09,-101.89 480.95,-99.7 471.4,-98.44"/>
<polygon fill="black" stroke="black" points="471.56,-94.94 461.28,-97.5 470.92,-101.91 471.56,-94.94"/>
<text text-anchor="middle" x="523.59" y="-101.3" font-family="Times,serif" font-size="14.00">reproduce</text>
</g>
<!-- mc_extended_dgpp_invis1 -->
<g id="node8" class="node">
<title>mc_extended_dgpp_invis1</title>
<text text-anchor="middle" x="310" y="-14.3" font-family="Times,serif" font-size="14.00">...</text>
</g>
<!-- mc_extended_dgpp&#45;&gt;mc_extended_dgpp_invis1 -->
<g id="edge10" class="edge">
<title>mc_extended_dgpp&#45;&gt;mc_extended_dgpp_invis1</title>
<path fill="none" stroke="black" d="M367.78,-87.21C357.29,-74.83 342.86,-57.8 331.05,-43.85"/>
<polygon fill="black" stroke="black" points="333.58,-41.42 324.44,-36.05 328.23,-45.94 333.58,-41.42"/>
<text text-anchor="middle" x="358" y="-57.8" font-family="Times,serif" font-size="14.00">...</text>
</g>
<!-- mc_extended_dgpp_invis2 -->
<g id="node9" class="node">
<title>mc_extended_dgpp_invis2</title>
<text text-anchor="middle" x="382" y="-14.3" font-family="Times,serif" font-size="14.00">...</text>
</g>
<!-- mc_extended_dgpp&#45;&gt;mc_extended_dgpp_invis2 -->
<g id="edge11" class="edge">
<title>mc_extended_dgpp&#45;&gt;mc_extended_dgpp_invis2</title>
<path fill="none" stroke="black" d="M382,-86.8C382,-75.16 382,-59.55 382,-46.24"/>
<polygon fill="black" stroke="black" points="385.5,-46.18 382,-36.18 378.5,-46.18 385.5,-46.18"/>
<text text-anchor="middle" x="389" y="-57.8" font-family="Times,serif" font-size="14.00">...</text>
</g>
<!-- mc_extended_dgpp_invis3 -->
<g id="node10" class="node">
<title>mc_extended_dgpp_invis3</title>
<text text-anchor="middle" x="454" y="-14.3" font-family="Times,serif" font-size="14.00">...</text>
</g>
<!-- mc_extended_dgpp&#45;&gt;mc_extended_dgpp_invis3 -->
<g id="edge12" class="edge">
<title>mc_extended_dgpp&#45;&gt;mc_extended_dgpp_invis3</title>
<path fill="none" stroke="black" d="M396.22,-87.21C406.71,-74.83 421.14,-57.8 432.95,-43.85"/>
<polygon fill="black" stroke="black" points="435.77,-45.94 439.56,-36.05 430.42,-41.42 435.77,-45.94"/>
<text text-anchor="middle" x="430" y="-57.8" font-family="Times,serif" font-size="14.00">...</text>
</g>
<!-- mc_extended_ss&#45;&gt;mc_extended_ss -->
<g id="edge13" class="edge">
<title>mc_extended_ss&#45;&gt;mc_extended_ss</title>
<path fill="none" stroke="black" d="M744.28,-112.5C759.4,-111.6 770.09,-109.1 770.09,-105 770.09,-101.89 763.95,-99.7 754.4,-98.44"/>
<polygon fill="black" stroke="black" points="754.56,-94.94 744.28,-97.5 753.92,-101.91 754.56,-94.94"/>
<text text-anchor="middle" x="806.59" y="-101.3" font-family="Times,serif" font-size="14.00">reproduce</text>
</g>
<!-- mc_extended_ss_invis1 -->
<g id="node11" class="node">
<title>mc_extended_ss_invis1</title>
<text text-anchor="middle" x="593" y="-14.3" font-family="Times,serif" font-size="14.00">...</text>
</g>
<!-- mc_extended_ss&#45;&gt;mc_extended_ss_invis1 -->
<g id="edge14" class="edge">
<title>mc_extended_ss&#45;&gt;mc_extended_ss_invis1</title>
<path fill="none" stroke="black" d="M650.78,-87.21C640.29,-74.83 625.86,-57.8 614.05,-43.85"/>
<polygon fill="black" stroke="black" points="616.58,-41.42 607.44,-36.05 611.23,-45.94 616.58,-41.42"/>
<text text-anchor="middle" x="640" y="-57.8" font-family="Times,serif" font-size="14.00">...</text>
</g>
<!-- mc_extended_ss_invis2 -->
<g id="node12" class="node">
<title>mc_extended_ss_invis2</title>
<text text-anchor="middle" x="665" y="-14.3" font-family="Times,serif" font-size="14.00">...</text>
</g>
<!-- mc_extended_ss&#45;&gt;mc_extended_ss_invis2 -->
<g id="edge15" class="edge">
<title>mc_extended_ss&#45;&gt;mc_extended_ss_invis2</title>
<path fill="none" stroke="black" d="M665,-86.8C665,-75.16 665,-59.55 665,-46.24"/>
<polygon fill="black" stroke="black" points="668.5,-46.18 665,-36.18 661.5,-46.18 668.5,-46.18"/>
<text text-anchor="middle" x="672" y="-57.8" font-family="Times,serif" font-size="14.00">...</text>
</g>
<!-- mc_extended_ss_invis3 -->
<g id="node13" class="node">
<title>mc_extended_ss_invis3</title>
<text text-anchor="middle" x="737" y="-14.3" font-family="Times,serif" font-size="14.00">...</text>
</g>
<!-- mc_extended_ss&#45;&gt;mc_extended_ss_invis3 -->
<g id="edge16" class="edge">
<title>mc_extended_ss&#45;&gt;mc_extended_ss_invis3</title>
<path fill="none" stroke="black" d="M679.22,-87.21C689.71,-74.83 704.14,-57.8 715.95,-43.85"/>
<polygon fill="black" stroke="black" points="718.77,-45.94 722.56,-36.05 713.42,-41.42 718.77,-45.94"/>
<text text-anchor="middle" x="712" y="-57.8" font-family="Times,serif" font-size="14.00">...</text>
</g>
</g>
</svg>
